<svg width="150" height="48" viewBox="0 0 150 48" fill="none" xmlns="http://www.w3.org/2000/svg">
<g clip-path="url(#clip0_471_643)">
<path fill-rule="evenodd" clip-rule="evenodd" d="M14.8305 29.1568C14.8305 28.2251 14.0818 27.4706 13.1539 27.4189C12.8782 27.4036 12.5981 27.3851 12.3135 27.3633C9.49445 27.1476 7.2912 27.2042 5.58281 27.4382C5.14369 27.4984 4.82764 27.8814 4.82764 28.3257V47.0802C4.82764 47.5884 5.2393 48.0028 5.74576 47.9786C8.73887 47.8352 11.5498 46.9949 14.0207 45.6159C14.5317 45.3307 14.8305 44.7808 14.8305 44.1944V29.1568Z" fill="white"/>
<path fill-rule="evenodd" clip-rule="evenodd" d="M4.82645 18.2658V13.5225H0L4.82645 18.2658Z" fill="#DCAC00"/>
<path fill-rule="evenodd" clip-rule="evenodd" d="M5.18076 0.538794C5.18076 0.225995 4.92687 -0.030837 4.61668 0.00300269C2.03482 0.284663 0.0253906 2.47737 0.0253906 5.14057C0.0253906 7.80375 2.03482 9.99646 4.61668 10.2782C4.92687 10.3119 5.18076 10.0552 5.18076 9.7423V0.538794Z" fill="#CE4646"/>
<path d="M6.4519 9.41576C6.4519 7.06977 8.34902 5.16797 10.6892 5.16797H19.2344C19.3514 5.16797 19.4463 5.26306 19.4463 5.38036C19.4463 7.72634 17.5492 9.62815 15.209 9.62815H6.66377C6.54676 9.62815 6.4519 9.53307 6.4519 9.41576Z" fill="#CE4646"/>
<path fill-rule="evenodd" clip-rule="evenodd" d="M5.76856 26.3786C7.39311 26.1459 9.50144 26.0859 12.2147 26.2938C12.5353 26.3184 12.8498 26.3386 13.1584 26.3545C14.0946 26.4029 14.8559 25.6382 14.8559 24.6985V13.8735C14.8559 13.2881 14.558 12.7389 14.0483 12.4533C11.532 11.0434 8.66168 10.1927 5.60461 10.069C5.17593 10.0516 4.82764 10.4019 4.82764 10.832V25.5848C4.82764 26.0789 5.28063 26.4484 5.76856 26.3786ZM9.55928 14.6904C9.55928 15.4138 8.97432 16.0002 8.25278 16.0002C7.53125 16.0002 6.94628 15.4138 6.94628 14.6904C6.94628 13.9671 7.53125 13.3807 8.25278 13.3807C8.97432 13.3807 9.55928 13.9671 9.55928 14.6904Z" fill="#CE4646"/>
<path fill-rule="evenodd" clip-rule="evenodd" d="M16.9746 27.1208C16.9746 26.3389 17.607 25.7049 18.387 25.7049H20.5413C21.3214 25.7049 21.9538 25.071 21.9538 24.289V13.3095C21.9538 12.5275 22.5861 11.8936 23.3662 11.8936H29.1319C29.912 11.8936 30.5443 12.5275 30.5443 13.3095V45.7343C30.5443 46.5163 29.912 47.1502 29.1319 47.1502H23.3662C22.5861 47.1502 21.9538 46.5163 21.9538 45.7343V34.0516C21.9538 33.2696 21.3214 32.6357 20.5413 32.6357H18.387C17.607 32.6357 16.9746 32.0018 16.9746 31.2198V27.1208Z" fill="white"/>
<path d="M40.7485 44.0917C41.0686 44.0917 41.4171 44.0634 41.7937 44.0068C42.1892 43.9312 42.4811 43.8369 42.6694 43.7236V41.4581L40.6355 41.628C40.1082 41.6657 39.675 41.779 39.3361 41.9678C38.9971 42.1567 38.8276 42.4398 38.8276 42.8174C38.8276 43.195 38.9688 43.5065 39.2513 43.7519C39.5527 43.9785 40.0517 44.0917 40.7485 44.0917ZM40.5225 32.9625C41.5395 32.9625 42.4623 33.0664 43.2909 33.274C44.1383 33.4817 44.8539 33.8027 45.4378 34.2369C46.0404 34.6522 46.5018 35.1903 46.8219 35.851C47.1421 36.4929 47.3022 37.2575 47.3022 38.1448V44.4882C47.3022 44.979 47.1609 45.385 46.8784 45.7059C46.6148 46.008 46.2946 46.2723 45.918 46.4988C44.6939 47.2351 42.9707 47.6032 40.7485 47.6032C39.7504 47.6032 38.8464 47.5089 38.0366 47.3201C37.2457 47.1312 36.5583 46.8481 35.9745 46.4705C35.4095 46.0929 34.9669 45.6115 34.6468 45.0262C34.3455 44.441 34.1948 43.7613 34.1948 42.9873C34.1948 41.6847 34.5809 40.6841 35.353 39.9855C36.1251 39.287 37.321 38.8528 38.9406 38.6829L42.6412 38.2864V38.0882C42.6412 37.5407 42.3963 37.1537 41.9067 36.9271C41.4359 36.6817 40.7485 36.559 39.8445 36.559C39.1289 36.559 38.4321 36.6345 37.7541 36.7855C37.0762 36.9365 36.4641 37.1254 35.918 37.3519C35.6731 37.182 35.466 36.9271 35.2965 36.5873C35.127 36.2286 35.0423 35.8604 35.0423 35.4829C35.0423 34.9921 35.1553 34.605 35.3813 34.3218C35.6261 34.0197 35.9933 33.7649 36.483 33.5572C37.0291 33.3496 37.6694 33.1985 38.4039 33.1041C39.1572 33.0097 39.8634 32.9625 40.5225 32.9625ZM50.1255 29.5643C50.1255 28.8469 50.3609 28.2427 50.8317 27.7519C51.3213 27.2611 51.9616 27.0156 52.7526 27.0156C53.5436 27.0156 54.1744 27.2611 54.6452 27.7519C55.1349 28.2427 55.3797 28.8469 55.3797 29.5643C55.3797 30.2817 55.1349 30.8859 54.6452 31.3767C54.1744 31.8675 53.5436 32.113 52.7526 32.113C51.9616 32.113 51.3213 31.8675 50.8317 31.3767C50.3609 30.8859 50.1255 30.2817 50.1255 29.5643ZM55.1537 47.1218C54.9466 47.1596 54.6359 47.2068 54.2215 47.2634C53.826 47.339 53.4212 47.3767 53.0068 47.3767C52.5925 47.3767 52.2159 47.3484 51.8769 47.2917C51.5568 47.2351 51.2837 47.1218 51.0577 46.9519C50.8317 46.782 50.6528 46.5554 50.521 46.2723C50.408 45.9702 50.3515 45.5832 50.3515 45.1112V33.5855C50.5586 33.5478 50.8599 33.5006 51.2554 33.4439C51.6698 33.3684 52.084 33.3307 52.4984 33.3307C52.9127 33.3307 53.2799 33.359 53.6001 33.4156C53.939 33.4723 54.2215 33.5855 54.4475 33.7554C54.6735 33.9254 54.843 34.1613 54.956 34.4634C55.0878 34.7466 55.1537 35.1242 55.1537 35.5962V47.1218ZM63.4425 33.9537C63.3106 33.746 63.1883 33.4628 63.0753 33.1041C62.9623 32.7454 62.9058 32.3678 62.9058 31.9714C62.9058 31.2351 63.0659 30.7065 63.386 30.3855C63.725 30.0646 64.1581 29.9041 64.6854 29.9041H77.002C77.1334 30.1118 77.2563 30.395 77.3693 30.7537C77.4823 31.1124 77.5387 31.49 77.5387 31.8864C77.5387 32.6227 77.3693 33.1513 77.0303 33.4723C76.7097 33.7932 76.2859 33.9537 75.7591 33.9537H72.6235V47.0369C72.4159 47.0935 72.0868 47.1501 71.6348 47.2068C71.2012 47.2634 70.7683 47.2917 70.3351 47.2917C69.902 47.2917 69.5159 47.254 69.177 47.1785C68.8568 47.1218 68.5837 47.0085 68.3577 46.8386C68.1318 46.6687 67.9623 46.4328 67.8493 46.1307C67.7363 45.8286 67.6798 45.4321 67.6798 44.9413V33.9537H63.4425ZM85.1397 47.6032C84.0289 47.6032 82.9928 47.4522 82.0324 47.1501C81.091 46.8292 80.2626 46.3572 79.5465 45.7342C78.8502 45.1112 78.2944 44.3277 77.8799 43.3838C77.4844 42.4398 77.2866 41.3354 77.2866 40.0705C77.2866 38.8245 77.4844 37.7578 77.8799 36.8705C78.2944 35.9643 78.8311 35.228 79.49 34.6616C80.1496 34.0764 80.9024 33.6516 81.7499 33.3873C82.5974 33.1041 83.4639 32.9625 84.3488 32.9625C85.3474 32.9625 86.2513 33.1135 87.0606 33.4156C87.8897 33.7177 88.596 34.133 89.1793 34.6616C89.7824 35.1903 90.2436 35.8227 90.5635 36.559C90.9025 37.2953 91.0719 38.0976 91.0719 38.9661C91.0719 39.608 90.8933 40.0988 90.5352 40.4386C90.1779 40.7785 89.6786 40.9956 89.038 41.09L82.0606 42.1377C82.2683 42.7608 82.692 43.2328 83.3318 43.5537C83.9724 43.8558 84.7068 44.0068 85.5352 44.0068C86.3078 44.0068 87.0324 43.9124 87.7104 43.7236C88.4074 43.5159 88.9724 43.2799 89.4053 43.0156C89.7068 43.2044 89.9611 43.4687 90.168 43.8085C90.3756 44.1484 90.4787 44.5071 90.4787 44.8847C90.4787 45.7342 90.0832 46.3666 89.2923 46.782C88.6899 47.1029 88.0119 47.32 87.2584 47.4333C86.5056 47.5466 85.7993 47.6032 85.1397 47.6032ZM84.3488 36.474C83.8968 36.474 83.5013 36.5496 83.1623 36.7006C82.8424 36.8516 82.579 37.0498 82.3714 37.2953C82.1645 37.5218 82.0041 37.7861 81.8911 38.0882C81.7972 38.3714 81.7407 38.664 81.7217 38.9661L86.5522 38.1731C86.4957 37.7956 86.2887 37.418 85.9307 37.0404C85.5734 36.6628 85.0458 36.474 84.3488 36.474ZM98.1863 47.1218C97.9978 47.1785 97.6962 47.2351 97.2824 47.2917C96.8869 47.3484 96.4724 47.3767 96.0395 47.3767C95.6249 47.3767 95.2485 47.3484 94.9095 47.2917C94.5889 47.2351 94.3163 47.1218 94.0903 46.9519C93.8643 46.782 93.6849 46.5554 93.5536 46.2723C93.4406 45.9702 93.3841 45.5832 93.3841 45.1112V36.6156C93.3841 36.1814 93.459 35.8133 93.6101 35.5112C93.7796 35.1903 94.0147 34.9071 94.3163 34.6616C94.6171 34.4162 94.9844 34.1991 95.418 34.0103C95.87 33.8027 96.3502 33.6233 96.8587 33.4723C97.3671 33.3213 97.894 33.208 98.4406 33.1324C98.9865 33.0381 99.5324 32.9908 100.079 32.9908C100.983 32.9908 101.698 33.1702 102.226 33.5289C102.753 33.8687 103.017 34.4351 103.017 35.228C103.017 35.4923 102.979 35.7566 102.904 36.0209C102.828 36.2664 102.734 36.4929 102.621 36.7006C102.226 36.7006 101.821 36.7195 101.407 36.7572C100.992 36.795 100.587 36.8516 100.192 36.9271C99.7965 37.0027 99.4194 37.0876 99.062 37.182C98.7231 37.2575 98.4307 37.3519 98.1863 37.4652V47.1218ZM113.422 38.428C113.422 37.8427 113.253 37.418 112.914 37.1537C112.594 36.8705 112.151 36.7289 111.586 36.7289C111.21 36.7289 110.833 36.7761 110.456 36.8705C110.099 36.9649 109.788 37.1065 109.524 37.2953V47.1218C109.336 47.1785 109.035 47.2351 108.62 47.2917C108.224 47.3484 107.811 47.3767 107.377 47.3767C106.963 47.3767 106.586 47.3484 106.247 47.2917C105.927 47.2351 105.654 47.1218 105.428 46.9519C105.202 46.782 105.023 46.5554 104.891 46.2723C104.778 45.9702 104.722 45.5832 104.722 45.1112V36.6156C104.722 36.1059 104.825 35.6905 105.032 35.3696C105.258 35.0487 105.56 34.756 105.936 34.4917C106.577 34.0386 107.377 33.6705 108.337 33.3873C109.317 33.1041 110.4 32.9625 111.586 32.9625C113.715 32.9625 115.353 33.4345 116.501 34.3785C117.65 35.3036 118.224 36.5967 118.224 38.2581V47.1218C118.037 47.1785 117.735 47.2351 117.321 47.2917C116.925 47.3484 116.511 47.3767 116.078 47.3767C115.664 47.3767 115.287 47.3484 114.948 47.2917C114.628 47.2351 114.354 47.1218 114.128 46.9519C113.902 46.782 113.724 46.5554 113.592 46.2723C113.479 45.9702 113.422 45.5832 113.422 45.1112V38.428ZM127.067 44.0917C127.387 44.0917 127.735 44.0634 128.112 44.0068C128.508 43.9312 128.799 43.8369 128.988 43.7236V41.4581L126.954 41.628C126.426 41.6657 125.994 41.779 125.655 41.9678C125.316 42.1567 125.146 42.4398 125.146 42.8174C125.146 43.195 125.287 43.5065 125.57 43.7519C125.871 43.9785 126.37 44.0917 127.067 44.0917ZM126.841 32.9625C127.858 32.9625 128.78 33.0664 129.609 33.274C130.457 33.4817 131.172 33.8027 131.756 34.2369C132.359 34.6522 132.82 35.1903 133.14 35.851C133.46 36.4929 133.621 37.2575 133.621 38.1448V44.4882C133.621 44.979 133.479 45.385 133.197 45.7059C132.933 46.008 132.613 46.2723 132.236 46.4988C131.012 47.2351 129.289 47.6032 127.067 47.6032C126.068 47.6032 125.164 47.5089 124.355 47.3201C123.564 47.1312 122.876 46.8481 122.293 46.4705C121.728 46.0929 121.285 45.6115 120.965 45.0262C120.664 44.441 120.513 43.7613 120.513 42.9873C120.513 41.6847 120.899 40.6841 121.672 39.9855C122.443 39.287 123.639 38.8528 125.259 38.6829L128.96 38.2864V38.0882C128.96 37.5407 128.715 37.1537 128.225 36.9271C127.754 36.6817 127.067 36.559 126.163 36.559C125.447 36.559 124.751 36.6345 124.073 36.7855C123.395 36.9365 122.782 37.1254 122.236 37.3519C121.991 37.182 121.785 36.9271 121.615 36.5873C121.446 36.2286 121.361 35.8604 121.361 35.4829C121.361 34.9921 121.474 34.605 121.7 34.3218C121.944 34.0197 122.311 33.7649 122.801 33.5572C123.347 33.3496 123.988 33.1985 124.722 33.1041C125.475 33.0097 126.181 32.9625 126.841 32.9625ZM149.974 44.6581C149.881 45.5454 149.617 46.225 149.184 46.697C148.77 47.169 148.157 47.405 147.347 47.405C146.745 47.405 146.208 47.2634 145.737 46.9802C145.267 46.6781 144.758 46.1779 144.212 45.4793L141.415 41.9678V47.1218C141.208 47.1596 140.898 47.2068 140.483 47.2634C140.087 47.339 139.683 47.3767 139.268 47.3767C138.854 47.3767 138.477 47.3484 138.138 47.2917C137.818 47.2351 137.545 47.1218 137.319 46.9519C137.093 46.782 136.914 46.5554 136.782 46.2723C136.669 45.9702 136.613 45.5832 136.613 45.1112V28.7147C136.821 28.6581 137.121 28.6015 137.517 28.5448C137.931 28.4693 138.346 28.4316 138.76 28.4316C139.174 28.4316 139.542 28.4599 139.861 28.5165C140.2 28.5731 140.483 28.6864 140.709 28.8563C140.935 29.0262 141.104 29.2622 141.217 29.5643C141.349 29.8475 141.415 30.225 141.415 30.697V38.1731L146.274 33.1891C147.253 33.1891 148.035 33.4062 148.619 33.8404C149.222 34.2746 149.523 34.8221 149.523 35.4829C149.523 35.7661 149.476 36.0304 149.381 36.2758C149.287 36.5024 149.137 36.7383 148.929 36.9838C148.741 37.2292 148.487 37.4935 148.167 37.7767C147.866 38.041 147.508 38.3525 147.093 38.7112L145.455 40.1271L149.974 44.6581Z" fill="white"/>
</g>
<defs>
<clipPath id="clip0_471_643">
<rect width="150" height="48" fill="white"/>
</clipPath>
</defs>
</svg>
