<svg width="25" height="39" viewBox="0 0 25 39" fill="none" xmlns="http://www.w3.org/2000/svg">
<g clip-path="url(#clip0_455_3014)">
<path fill-rule="evenodd" clip-rule="evenodd" d="M12.1247 23.6898C12.1247 22.9328 11.5125 22.3197 10.7539 22.2777C10.5285 22.2653 10.2996 22.2503 10.0669 22.2325C7.76214 22.0573 5.96087 22.1033 4.56417 22.2934C4.20517 22.3423 3.94678 22.6535 3.94678 23.0145V38.2525C3.94678 38.6655 4.28333 39.0021 4.69739 38.9825C7.14442 38.866 9.44251 38.1832 11.4625 37.0628C11.8803 36.8311 12.1247 36.3842 12.1247 35.9078V23.6898Z" fill="white"/>
<path fill-rule="evenodd" clip-rule="evenodd" d="M3.94587 14.8407V10.9868H0L3.94587 14.8407Z" fill="white"/>
<path fill-rule="evenodd" clip-rule="evenodd" d="M4.23553 0.43777C4.23553 0.183621 4.02797 -0.0250551 3.77437 0.00243969C1.66356 0.231289 0.020752 2.01286 0.020752 4.17671C0.020752 6.34055 1.66356 8.12212 3.77437 8.351C4.02797 8.37844 4.23553 8.16981 4.23553 7.91562V0.43777Z" fill="white"/>
<path d="M5.27466 7.65055C5.27466 5.74443 6.82564 4.19922 8.73887 4.19922H15.725C15.8207 4.19922 15.8982 4.27648 15.8982 4.37179C15.8982 6.2779 14.3472 7.82311 12.434 7.82311H5.44787C5.3522 7.82311 5.27466 7.74586 5.27466 7.65055Z" fill="white"/>
<path fill-rule="evenodd" clip-rule="evenodd" d="M4.71603 21.4322C6.04418 21.2432 7.76786 21.1944 9.9861 21.3634C10.2482 21.3833 10.5053 21.3997 10.7576 21.4127C11.523 21.452 12.1454 20.8307 12.1454 20.0672V11.2719C12.1454 10.7962 11.9019 10.35 11.4851 10.1179C9.42796 8.97241 7.08131 8.28123 4.582 8.18068C4.23152 8.16658 3.94678 8.4512 3.94678 8.80065V20.7873C3.94678 21.1887 4.31712 21.4889 4.71603 21.4322ZM7.81514 11.9356C7.81514 12.5234 7.33691 12.9998 6.74701 12.9998C6.15712 12.9998 5.67888 12.5234 5.67888 11.9356C5.67888 11.3479 6.15712 10.8714 6.74701 10.8714C7.33691 10.8714 7.81514 11.3479 7.81514 11.9356Z" fill="white"/>
<path fill-rule="evenodd" clip-rule="evenodd" d="M13.8774 21.7481C13.8774 21.1128 14.3944 20.5977 15.0322 20.5977H16.8035C17.4412 20.5977 17.9582 20.0826 17.9582 19.4472V10.5264C17.9582 9.89103 18.4752 9.37598 19.1129 9.37598H23.8267C24.4644 9.37598 24.9815 9.89103 24.9815 10.5264V36.8715C24.9815 37.5069 24.4644 38.022 23.8267 38.022H19.1129C18.4752 38.022 17.9582 37.5069 17.9582 36.8715V27.3794C17.9582 26.744 17.4412 26.229 16.8035 26.229H15.0322C14.3944 26.229 13.8774 25.7139 13.8774 25.0785V21.7481Z" fill="white"/>
</g>
<defs>
<clipPath id="clip0_455_3014">
<rect width="25" height="39" fill="white"/>
</clipPath>
</defs>
</svg>
