<svg width="25" height="24" viewBox="0 0 25 24" fill="none" xmlns="http://www.w3.org/2000/svg">
<g clip-path="url(#clip0_455_2739)">
<path d="M7.98839 19.3598C6.71632 19.3598 5.68709 20.4038 5.68709 21.6798C5.68709 22.9558 6.71632 23.9998 7.98839 23.9998C9.26046 23.9998 10.3013 22.9558 10.3013 21.6798C10.3013 20.4038 9.26046 19.3598 7.98839 19.3598ZM1.0498 0.799805V3.1198H3.36267L7.52582 11.9242L5.96464 14.7662C5.77961 15.091 5.67553 15.4738 5.67553 15.8798C5.67553 17.1558 6.71632 18.1998 7.98839 18.1998H21.8656V15.8798H8.47409C8.31219 15.8798 8.18498 15.7522 8.18498 15.5898L8.21967 15.4506L9.26046 13.5598H17.8759C18.7432 13.5598 19.5064 13.0842 19.8996 12.365L24.0396 4.83661C24.1322 4.6742 24.1784 4.477 24.1784 4.2798C24.1784 3.6418 23.658 3.1198 23.022 3.1198H5.91838L4.83133 0.799805H1.0498ZM19.5527 19.3598C18.2806 19.3598 17.2514 20.4038 17.2514 21.6798C17.2514 22.9558 18.2806 23.9998 19.5527 23.9998C20.8248 23.9998 21.8656 22.9558 21.8656 21.6798C21.8656 20.4038 20.8248 19.3598 19.5527 19.3598Z" fill="#7B8D9E"/>
</g>
<defs>
<clipPath id="clip0_455_2739">
<rect width="23.9262" height="24" fill="white" transform="translate(0.252197)"/>
</clipPath>
</defs>
</svg>
