<svg width="44" height="44" viewBox="0 0 44 44" fill="none" xmlns="http://www.w3.org/2000/svg">
<rect x="0.5" y="0.5" width="43" height="43" rx="15.5" stroke="white" stroke-opacity="0.4"/>
<path fill-rule="evenodd" clip-rule="evenodd" d="M24.318 15.9749C24.9422 15.3507 25.7888 15 26.6716 15C28.5098 15 30 16.4902 30 18.3284C30 19.2112 29.6493 20.0578 29.0251 20.682L25.8536 23.8536L25.1464 23.1464L28.318 19.9749C28.7547 19.5382 29 18.946 29 18.3284C29 17.0425 27.9575 16 26.6716 16C26.054 16 25.4618 16.2453 25.0251 16.682L21.8536 19.8536L21.1464 19.1464L24.318 15.9749ZM25.8536 19.8536L19.8536 25.8536L19.1464 25.1464L25.1464 19.1464L25.8536 19.8536ZM19.8536 21.8536L16.682 25.0251C16.2453 25.4618 16 26.054 16 26.6716C16 27.9575 17.0425 29 18.3284 29C18.946 29 19.5382 28.7547 19.9749 28.318L23.1464 25.1464L23.8536 25.8536L20.682 29.0251C20.0578 29.6493 19.2112 30 18.3284 30C16.4902 30 15 28.5098 15 26.6716C15 25.7888 15.3507 24.9422 15.9749 24.318L19.1464 21.1464L19.8536 21.8536Z" fill="white"/>
</svg>
