<svg width="61" height="60" viewBox="0 0 61 60" fill="none" xmlns="http://www.w3.org/2000/svg">
<ellipse cx="30.4985" cy="30" rx="29.9077" ry="30" fill="#DCEDF9"/>
<path d="M30.4985 10C41.5105 10 50.437 18.954 50.437 30C50.437 41.046 41.5105 50 30.4985 50C19.4865 50 10.5601 41.046 10.5601 30C10.5601 18.954 19.4865 10 30.4985 10ZM36.9785 34.664L36.9008 34.808L36.7751 34.99L27.2904 46.696C28.3478 46.899 29.422 47.0007 30.4985 47C34.6567 47.0061 38.6708 45.4728 41.7717 42.694L37.6166 33.614C37.4311 33.98 37.2178 34.332 36.9785 34.664ZM15.5247 37.97C17.4042 41.5123 20.4681 44.2769 24.178 45.778L30.4806 38L30.1017 37.99L29.8386 37.974L15.5247 37.97ZM46.7085 25.024H36.7432C36.9067 25.23 37.0603 25.444 37.2018 25.664C37.2513 25.7195 37.296 25.779 37.3354 25.842L37.4331 26.022L37.5109 26.186C37.6823 26.502 37.8339 26.832 37.9615 27.172L43.9749 40.312C46.2323 37.3518 47.4525 33.7269 47.4462 30C47.4477 28.3138 47.1991 26.6368 46.7085 25.024ZM13.5508 30C13.5508 31.73 13.81 33.4 14.2886 34.972H24.2498C24.0866 34.7663 23.9335 34.5527 23.7912 34.332L23.5221 33.886L16.3163 20.69C14.5071 23.4555 13.5456 26.6922 13.5508 30ZM26.5507 26.948L26.463 27.09C26.4197 27.1578 26.371 27.222 26.3174 27.282C25.8536 28.0001 25.5813 28.8255 25.5265 29.6793C25.4716 30.5331 25.6361 31.3868 26.0043 32.1586C26.3724 32.9304 26.9318 33.5945 27.6289 34.0875C28.3261 34.5804 29.1377 34.8857 29.9861 34.974H31.0089C32.2401 34.8474 33.3803 34.2659 34.2077 33.3427C35.0351 32.4194 35.4905 31.2204 35.4852 29.979C35.48 28.7375 35.0146 27.5424 34.1794 26.6262C33.3443 25.71 32.1993 25.1382 30.9671 25.022L30.2234 25.026L30.1077 25.016C29.4131 25.0704 28.7375 25.2705 28.1248 25.6033C27.5121 25.9361 26.9758 26.3942 26.5507 26.948ZM30.4985 13C28.2312 12.997 25.9864 13.4518 23.8979 14.3373C21.8094 15.2227 19.92 16.5208 18.342 18.154L23.1313 26.928C23.3845 26.32 23.7095 25.748 24.0983 25.226L31.8822 13.056C31.4219 13.0187 30.9603 13 30.4985 13ZM29.689 22.04C30.1601 21.9923 30.6345 21.9863 31.1066 22.022L45.4703 22.026C43.3906 18.1061 39.8683 15.1548 35.6526 13.8L35.0704 13.626L29.689 22.04Z" fill="#1C6BA4"/>
</svg>
