<svg width="25" height="24" viewBox="0 0 25 24" fill="none" xmlns="http://www.w3.org/2000/svg">
<g clip-path="url(#clip0_455_2732)">
<path d="M23.5459 7.21333L17.1059 0.773333C16.6125 0.28 15.9325 0 15.2259 0H2.99919C1.53252 0 0.33252 1.2 0.33252 2.66667V21.3333C0.33252 22.8 1.53252 24 2.99919 24H21.6659C23.1325 24 24.3325 22.8 24.3325 21.3333V9.10667C24.3325 8.4 24.0525 7.72 23.5459 7.21333ZM5.66585 5.33333H14.9992V8H5.66585V5.33333ZM18.9992 18.6667H5.66585V16H18.9992V18.6667ZM18.9992 13.3333H5.66585V10.6667H18.9992V13.3333Z" fill="#7B8D9E"/>
</g>
<defs>
<clipPath id="clip0_455_2732">
<rect width="24" height="24" fill="white" transform="translate(0.33252)"/>
</clipPath>
</defs>
</svg>
