<svg width="25" height="24" viewBox="0 0 25 24" fill="none" xmlns="http://www.w3.org/2000/svg">
<path d="M12.0432 0C5.43954 0 0.0800781 5.376 0.0800781 12C0.0800781 18.624 5.43954 24 12.0432 24C18.6468 24 24.0062 18.624 24.0062 12C24.0062 5.376 18.6468 0 12.0432 0ZM12.0432 4.8C14.352 4.8 16.2302 6.684 16.2302 9C16.2302 11.316 14.352 13.2 12.0432 13.2C9.73428 13.2 7.85608 11.316 7.85608 9C7.85608 6.684 9.73428 4.8 12.0432 4.8ZM12.0432 21.6C9.61465 21.6 6.74351 20.616 4.69783 18.144C6.79328 16.4949 9.37972 15.5986 12.0432 15.5986C14.7066 15.5986 17.293 16.4949 19.3885 18.144C17.3428 20.616 14.4717 21.6 12.0432 21.6Z" fill="#7B8D9E"/>
</svg>
