<svg width="52" height="52" viewBox="0 0 52 52" fill="none" xmlns="http://www.w3.org/2000/svg">
<circle cx="26" cy="26" r="25" stroke="#FF0000" stroke-width="2"/>
<path d="M33.9103 28C34.4129 28 34.8203 28.4074 34.8203 28.91L34.8201 31.9937L33.0002 31.9936L33.0003 28.9099C33.0004 28.4073 33.4078 27.9999 33.9103 28Z" fill="#FF0000"/>
<path d="M39.7195 30.6241C40.0853 30.9687 40.1025 31.5446 39.7579 31.9104L38.3247 33.4317L37 32.1837L38.4332 30.6624C38.7778 30.2966 39.3537 30.2795 39.7195 30.6241Z" fill="#FF0000"/>
<path d="M27.4148 31.6241C27.049 31.9687 27.0318 32.5446 27.3764 32.9104L28.8096 34.4317L30.1343 33.1837L28.7011 31.6624C28.3565 31.2966 27.7806 31.2795 27.4148 31.6241Z" fill="#FF0000"/>
<path d="M43.0987 37.0272C43.1183 37.5294 42.7272 37.9525 42.225 37.9721L40.1366 38.0539L40.0654 36.2353L42.1538 36.1536C42.656 36.1339 43.079 36.5251 43.0987 37.0272Z" fill="#FF0000"/>
<path d="M24.0241 37.9898C24.0375 38.4922 24.4556 38.8885 24.958 38.8751L27.6301 38.8038L27.5816 36.9845L24.9094 37.0558C24.4071 37.0692 24.0107 37.4874 24.0241 37.9898Z" fill="#FF0000"/>
<path d="M40.7571 43.7724C40.3999 44.126 39.8237 44.1231 39.4702 43.7659L37.9999 42.2805L39.2933 41.0002L40.7636 42.4856C41.1172 42.8427 41.1142 43.4189 40.7571 43.7724Z" fill="#FF0000"/>
<path d="M26.6467 44.7724C27.0039 45.126 27.5801 45.1231 27.9336 44.7659L29.8632 42.8165L28.5697 41.5362L26.6402 43.4856C26.2866 43.8427 26.2896 44.4189 26.6467 44.7724Z" fill="#FF0000"/>
<path d="M33.9829 47.0212C33.4805 47.0335 33.0633 46.6362 33.051 46.1338L32.9998 44.0444L34.8192 43.9998L34.8704 46.0892C34.8827 46.5916 34.4854 47.0089 33.9829 47.0212Z" fill="#FF0000"/>
<path d="M26 7.5H25.9773L25.9547 7.50205C23.1208 7.75968 20.4152 8.77899 18.4078 10.134C16.4331 11.4669 15 13.2224 15 15C15 15.8809 15.2997 16.5671 15.9452 16.989C16.5469 17.3824 17.3643 17.486 18.2692 17.4512C20.0298 17.3836 22.4941 16.7672 25.354 16.0519C25.4111 16.0376 25.4683 16.0233 25.5257 16.009C26.1195 16.0967 26.821 16.2256 27.5877 16.3665C27.9167 16.4269 28.2576 16.4896 28.6072 16.5522C29.8048 16.7664 31.0899 16.9767 32.2711 17.0749C33.4387 17.1719 34.5649 17.1656 35.4177 16.9087C35.8495 16.7786 36.2484 16.5734 36.5415 16.2497C36.8441 15.9156 37 15.4922 37 15C37 13.2774 35.9154 11.3949 34.0385 9.96336C32.1477 8.52119 29.414 7.5 26 7.5Z" stroke="#FF0000"/>
<path d="M13.5502 10.4268C13.8541 10.0266 14.425 9.94859 14.8252 10.2526L16.4895 11.5168L15.3887 12.9661L13.7243 11.7018C13.3241 11.3978 13.2462 10.827 13.5502 10.4268Z" fill="#FF0000"/>
<path d="M19.5651 6.3815C20.0049 6.13817 20.5586 6.29739 20.8019 6.73712L21.8138 8.56585L20.2214 9.447L19.2095 7.61828C18.9662 7.17855 19.1254 6.62482 19.5651 6.3815Z" fill="#FF0000"/>
<path d="M25.9103 4.99996C26.4129 4.99998 26.8203 5.40741 26.8203 5.90997L26.8202 8L25.0002 7.99992L25.0003 5.9099C25.0004 5.40733 25.4078 4.99994 25.9103 4.99996Z" fill="#FF0000"/>
<path d="M32.5699 6.15269C33.0213 6.37363 33.2081 6.91866 32.9872 7.37005L32.0683 9.24728L30.4337 8.44718L31.3525 6.56996C31.5735 6.11857 32.1185 5.93175 32.5699 6.15269Z" fill="#FF0000"/>
<path d="M37.9702 9.8455C38.2499 10.2631 38.1381 10.8283 37.7205 11.1079L35.984 12.271L34.9712 10.7588L36.7078 9.5958C37.1253 9.31614 37.6905 9.42793 37.9702 9.8455Z" fill="#FF0000"/>
<path d="M39.1177 17.0066C38.9219 17.4695 38.388 17.686 37.9251 17.4902L36.0002 16.6761L36.7091 14.9999L38.6341 15.8141C39.0969 16.0098 39.3134 16.5438 39.1177 17.0066Z" fill="#FF0000"/>
<path d="M31.9019 20.0943C31.4038 20.0274 31.0542 19.5694 31.1211 19.0713L31.3994 16.9998L33.2031 17.2421L32.9249 19.3135C32.858 19.8116 32.4 20.1612 31.9019 20.0943Z" fill="#FF0000"/>
<path d="M26.1189 19.1078C25.6164 19.1135 25.2043 18.7108 25.1986 18.2083L25.1747 16.1184L26.9946 16.0976L27.0184 18.1875C27.0242 18.69 26.6214 19.102 26.1189 19.1078Z" fill="#FF0000"/>
<path d="M19.9441 20.0101C19.4416 20.0159 19.0295 19.6131 19.0238 19.1106L18.9999 17.0207L20.8198 16.9999L20.8436 19.0898C20.8494 19.5923 20.4466 20.0044 19.9441 20.0101Z" fill="#FF0000"/>
<path d="M13.7127 18.9154C13.3191 18.6029 13.2533 18.0305 13.5658 17.6369L14.8652 16L16.2907 17.1315L14.9912 18.7684C14.6787 19.1621 14.1063 19.2279 13.7127 18.9154Z" fill="#FF0000"/>
<path d="M7.76708 33.6549L7.77574 33.6759L7.78627 33.696C8.83344 35.6945 10.3997 37.3686 12.0029 38.4307C13.5731 39.4708 15.3206 40.0106 16.6638 39.4553C17.3281 39.1807 17.7686 38.7321 17.8898 38.0918C18.0012 37.5029 17.8194 36.8523 17.5195 36.1992C16.9366 34.9293 15.7423 33.3155 14.3683 31.4587C14.3429 31.4245 14.3175 31.3901 14.2921 31.3557C14.1795 30.9039 14.0647 30.3657 13.9388 29.7758C13.8838 29.5181 13.8267 29.2505 13.7668 28.976C13.5626 28.0407 13.3284 27.0391 13.0432 26.1459C12.7622 25.2656 12.4143 24.4326 11.9579 23.8735C11.7261 23.5895 11.4422 23.3461 11.0945 23.2215C10.7335 23.0923 10.3516 23.1085 9.97154 23.2656C8.67918 23.7999 7.61996 25.1878 7.13777 27.0031C6.65109 28.8354 6.73303 31.1534 7.76708 33.6549Z" stroke="#FF0000"/>
<path d="M13.7341 41.7849C13.3519 41.6842 13.1236 41.2927 13.2244 40.9104L13.6433 39.3207L15.0276 39.6854L14.6087 41.2752C14.5079 41.6574 14.1164 41.8857 13.7341 41.7849Z" fill="#FF0000"/>
<path d="M8.98628 38.628C8.67726 38.3815 8.62662 37.9311 8.87316 37.6221L9.89844 36.337L11.0175 37.2298L9.99219 38.5149C9.74566 38.8239 9.29529 38.8746 8.98628 38.628Z" fill="#FF0000"/>
<path d="M6.07517 34.4305C5.92417 34.0652 6.09792 33.6466 6.46326 33.4956L7.98259 32.8677L8.5294 34.1907L7.01007 34.8186C6.64474 34.9696 6.22616 34.7959 6.07517 34.4305Z" fill="#FF0000"/>
<path d="M4.91231 29.2436C4.93728 28.8491 5.27734 28.5495 5.67186 28.5745L7.31257 28.6784L7.22215 30.107L5.58144 30.0032C5.18692 29.9782 4.88734 29.6382 4.91231 29.2436Z" fill="#FF0000"/>
<path d="M5.97413 24.2081C6.19364 23.8793 6.6381 23.7907 6.96687 24.0102L8.33412 24.9231L7.53922 26.1137L6.17197 25.2008C5.8432 24.9813 5.75463 24.5368 5.97413 24.2081Z" fill="#FF0000"/>
<path d="M10.8345 21.2222C11.2298 21.2254 11.5477 21.5485 11.5444 21.9438L11.531 23.5877L10.0995 23.576L10.1129 21.9321C10.1162 21.5368 10.4392 21.219 10.8345 21.2222Z" fill="#FF0000"/>
<path d="M15.2472 25.5399C15.3483 25.9221 15.1204 26.3138 14.7382 26.4149L13.1488 26.8351L12.7829 25.4511L14.3723 25.0309C14.7545 24.9298 15.1462 25.1578 15.2472 25.5399Z" fill="#FF0000"/>
<path d="M16.2683 30.0404C16.4235 30.404 16.2546 30.8245 15.891 30.9797L14.379 31.625L13.817 30.3084L15.3291 29.6631C15.6926 29.5079 16.1132 29.6768 16.2683 30.0404Z" fill="#FF0000"/>
<path d="M18.7796 34.2572C18.9348 34.6208 18.7658 35.0413 18.4022 35.1965L16.8902 35.8418L16.3282 34.5252L17.8403 33.8799C18.2039 33.7247 18.6244 33.8936 18.7796 34.2572Z" fill="#FF0000"/>
<path d="M19.8563 39.1161C19.7474 39.4961 19.3511 39.7159 18.9711 39.6071L17.3907 39.1543L17.7849 37.7781L19.3653 38.2309C19.7453 38.3398 19.9652 38.7361 19.8563 39.1161Z" fill="#FF0000"/>
<circle cx="34" cy="38" r="6" stroke="#FF0000" stroke-width="2"/>
<circle cx="43.5" cy="18.5" r="2" stroke="#FF0000"/>
<circle cx="22" cy="45" r="2.5" stroke="#FF0000"/>
<circle cx="8.5" cy="16.5" r="1.5" fill="#FF0000"/>
<circle cx="25.5" cy="10.5" r="1.5" fill="#FF0000"/>
<circle cx="19" cy="13" r="1" fill="#FF0000"/>
<circle cx="11" cy="31" r="1" fill="#FF0000"/>
<circle cx="14" cy="36" r="1" fill="#FF0000"/>
<circle cx="32" cy="36" r="1" fill="#FF0000"/>
<circle cx="37" cy="37" r="1" fill="#FF0000"/>
<circle cx="33.5" cy="39.5" r="1.5" fill="#FF0000"/>
<circle cx="23" cy="14" r="1" fill="#FF0000"/>
<circle cx="30" cy="11" r="1" fill="#FF0000"/>
<circle cx="33.5" cy="14.5" r="1.5" fill="#FF0000"/>
<circle cx="45" cy="31" r="2" fill="#FF0000"/>
<rect x="1.98633" y="26.4224" width="48" height="2.24325" transform="rotate(-3.18268 1.98633 26.4224)" fill="#FF0000"/>
</svg>
